<mxfile host="Electron" agent="Mozilla/5.0 (Windows NT 10.0; Win64; x64) AppleWebKit/537.36 (KHTML, like Gecko) draw.io/26.0.9 Chrome/128.0.6613.186 Electron/32.2.5 Safari/537.36" version="26.0.9">
  <diagram name="Page-1" id="kMi61NyPcCNk2VD_IXgL">
    <mxGraphModel dx="1687" dy="984" grid="1" gridSize="10" guides="1" tooltips="1" connect="1" arrows="1" fold="1" page="1" pageScale="1" pageWidth="827" pageHeight="1169" math="0" shadow="0">
      <root>
        <mxCell id="0" />
        <mxCell id="1" parent="0" />
        <mxCell id="mQaGHORo1Vh2YD8DS4Wc-2" value="AI Provider" style="rounded=1;whiteSpace=wrap;html=1;fillColor=#e1d5e7;strokeColor=#9673a6;fontStyle=1" parent="1" vertex="1">
          <mxGeometry x="765" y="110" width="120" height="60" as="geometry" />
        </mxCell>
        <mxCell id="Qp2QEkqSjkCgz9pn4vi4-4" value="" style="edgeStyle=orthogonalEdgeStyle;rounded=0;orthogonalLoop=1;jettySize=auto;html=1;" edge="1" parent="1" source="mQaGHORo1Vh2YD8DS4Wc-3" target="mQaGHORo1Vh2YD8DS4Wc-2">
          <mxGeometry relative="1" as="geometry" />
        </mxCell>
        <mxCell id="mQaGHORo1Vh2YD8DS4Wc-3" value="PORTKEY" style="rounded=1;whiteSpace=wrap;html=1;fillColor=#dae8fc;strokeColor=#6c8ebf;fontStyle=1" parent="1" vertex="1">
          <mxGeometry x="765" y="210" width="120" height="60" as="geometry" />
        </mxCell>
        <mxCell id="mQaGHORo1Vh2YD8DS4Wc-4" value="Agent Core - Docker" style="swimlane;startSize=20;horizontal=0;html=1;fillColor=#f8cecc;strokeColor=#b85450;" parent="1" vertex="1">
          <mxGeometry x="430" y="360" width="790" height="500" as="geometry" />
        </mxCell>
        <mxCell id="mQaGHORo1Vh2YD8DS4Wc-86" style="edgeStyle=orthogonalEdgeStyle;rounded=0;orthogonalLoop=1;jettySize=auto;html=1;" parent="mQaGHORo1Vh2YD8DS4Wc-4" source="mQaGHORo1Vh2YD8DS4Wc-17" edge="1">
          <mxGeometry relative="1" as="geometry">
            <mxPoint x="159.99999999999977" y="230" as="targetPoint" />
          </mxGeometry>
        </mxCell>
        <mxCell id="mQaGHORo1Vh2YD8DS4Wc-17" value="Tool System" style="swimlane;startSize=20;html=1;fillColor=#6d8764;fontColor=#ffffff;strokeColor=#3A5431;" parent="mQaGHORo1Vh2YD8DS4Wc-4" vertex="1">
          <mxGeometry x="60" y="270" width="200" height="210" as="geometry" />
        </mxCell>
        <mxCell id="mQaGHORo1Vh2YD8DS4Wc-80" style="edgeStyle=orthogonalEdgeStyle;rounded=0;orthogonalLoop=1;jettySize=auto;html=1;" parent="mQaGHORo1Vh2YD8DS4Wc-17" source="mQaGHORo1Vh2YD8DS4Wc-18" edge="1">
          <mxGeometry relative="1" as="geometry">
            <mxPoint x="-150" y="70" as="targetPoint" />
          </mxGeometry>
        </mxCell>
        <mxCell id="mQaGHORo1Vh2YD8DS4Wc-18" value="Tool Registry" style="rounded=1;whiteSpace=wrap;html=1;" parent="mQaGHORo1Vh2YD8DS4Wc-17" vertex="1">
          <mxGeometry x="40" y="50" width="120" height="40" as="geometry" />
        </mxCell>
        <mxCell id="mQaGHORo1Vh2YD8DS4Wc-19" value="Tool API Wrapper" style="rounded=1;whiteSpace=wrap;html=1;" parent="mQaGHORo1Vh2YD8DS4Wc-17" vertex="1">
          <mxGeometry x="40" y="140" width="120" height="40" as="geometry" />
        </mxCell>
        <mxCell id="mQaGHORo1Vh2YD8DS4Wc-81" style="edgeStyle=orthogonalEdgeStyle;rounded=0;orthogonalLoop=1;jettySize=auto;html=1;entryX=0.503;entryY=1.083;entryDx=0;entryDy=0;entryPerimeter=0;" parent="mQaGHORo1Vh2YD8DS4Wc-17" source="mQaGHORo1Vh2YD8DS4Wc-19" target="mQaGHORo1Vh2YD8DS4Wc-18" edge="1">
          <mxGeometry relative="1" as="geometry" />
        </mxCell>
        <mxCell id="mQaGHORo1Vh2YD8DS4Wc-9" value="Memory System" style="swimlane;startSize=20;html=1;fillColor=#6d8764;fontColor=#ffffff;strokeColor=#3A5431;" parent="mQaGHORo1Vh2YD8DS4Wc-4" vertex="1">
          <mxGeometry x="540" y="260" width="200" height="200" as="geometry" />
        </mxCell>
        <mxCell id="mQaGHORo1Vh2YD8DS4Wc-10" value="Vector Memory&#xa;(ChromaDB + Ollama)" style="rounded=1;whiteSpace=wrap;html=1;" parent="mQaGHORo1Vh2YD8DS4Wc-9" vertex="1">
          <mxGeometry x="40" y="50" width="120" height="40" as="geometry" />
        </mxCell>
        <mxCell id="mQaGHORo1Vh2YD8DS4Wc-11" value="Long Term Memory&#xa;(PostgreSQL)" style="rounded=1;whiteSpace=wrap;html=1;" parent="mQaGHORo1Vh2YD8DS4Wc-9" vertex="1">
          <mxGeometry x="40" y="110" width="120" height="40" as="geometry" />
        </mxCell>
        <mxCell id="Qp2QEkqSjkCgz9pn4vi4-16" style="edgeStyle=orthogonalEdgeStyle;rounded=0;orthogonalLoop=1;jettySize=auto;html=1;" edge="1" parent="mQaGHORo1Vh2YD8DS4Wc-4" source="mQaGHORo1Vh2YD8DS4Wc-13">
          <mxGeometry relative="1" as="geometry">
            <mxPoint x="-70" y="140" as="targetPoint" />
          </mxGeometry>
        </mxCell>
        <mxCell id="mQaGHORo1Vh2YD8DS4Wc-13" value="Configuration" style="swimlane;startSize=20;html=1;fillColor=#6d8764;fontColor=#ffffff;strokeColor=#3A5431;" parent="mQaGHORo1Vh2YD8DS4Wc-4" vertex="1">
          <mxGeometry x="60" y="15" width="200" height="250" as="geometry" />
        </mxCell>
        <mxCell id="mQaGHORo1Vh2YD8DS4Wc-14" value="YAML Loader" style="rounded=1;whiteSpace=wrap;html=1;" parent="mQaGHORo1Vh2YD8DS4Wc-13" vertex="1">
          <mxGeometry x="40" y="40" width="120" height="40" as="geometry" />
        </mxCell>
        <mxCell id="mQaGHORo1Vh2YD8DS4Wc-15" value="Hot Reload" style="rounded=1;whiteSpace=wrap;html=1;" parent="mQaGHORo1Vh2YD8DS4Wc-13" vertex="1">
          <mxGeometry x="40" y="90" width="120" height="40" as="geometry" />
        </mxCell>
        <mxCell id="mQaGHORo1Vh2YD8DS4Wc-16" value="Environment&#xa;Manager" style="rounded=1;whiteSpace=wrap;html=1;" parent="mQaGHORo1Vh2YD8DS4Wc-13" vertex="1">
          <mxGeometry x="40" y="140" width="120" height="40" as="geometry" />
        </mxCell>
        <mxCell id="mQaGHORo1Vh2YD8DS4Wc-new1" value="Config&#xa;Validation" style="rounded=1;whiteSpace=wrap;html=1;" vertex="1" parent="mQaGHORo1Vh2YD8DS4Wc-13">
          <mxGeometry x="40" y="190" width="120" height="40" as="geometry" />
        </mxCell>
        <mxCell id="mQaGHORo1Vh2YD8DS4Wc-38" style="edgeStyle=orthogonalEdgeStyle;rounded=0;orthogonalLoop=1;jettySize=auto;html=1;" parent="mQaGHORo1Vh2YD8DS4Wc-13" source="mQaGHORo1Vh2YD8DS4Wc-14" target="mQaGHORo1Vh2YD8DS4Wc-15" edge="1">
          <mxGeometry relative="1" as="geometry" />
        </mxCell>
        <mxCell id="mQaGHORo1Vh2YD8DS4Wc-39" style="edgeStyle=orthogonalEdgeStyle;rounded=0;orthogonalLoop=1;jettySize=auto;html=1;" parent="mQaGHORo1Vh2YD8DS4Wc-13" source="mQaGHORo1Vh2YD8DS4Wc-15" target="mQaGHORo1Vh2YD8DS4Wc-16" edge="1">
          <mxGeometry relative="1" as="geometry" />
        </mxCell>
        <mxCell id="mQaGHORo1Vh2YD8DS4Wc-56" style="edgeStyle=orthogonalEdgeStyle;rounded=0;orthogonalLoop=1;jettySize=auto;html=1;entryX=0.5;entryY=0;entryDx=0;entryDy=0;" parent="mQaGHORo1Vh2YD8DS4Wc-4" source="mQaGHORo1Vh2YD8DS4Wc-12" target="mQaGHORo1Vh2YD8DS4Wc-9" edge="1">
          <mxGeometry relative="1" as="geometry" />
        </mxCell>
        <mxCell id="mQaGHORo1Vh2YD8DS4Wc-65" style="edgeStyle=orthogonalEdgeStyle;rounded=0;orthogonalLoop=1;jettySize=auto;html=1;entryX=0;entryY=0.5;entryDx=0;entryDy=0;" parent="mQaGHORo1Vh2YD8DS4Wc-4" source="mQaGHORo1Vh2YD8DS4Wc-5" target="mQaGHORo1Vh2YD8DS4Wc-12" edge="1">
          <mxGeometry relative="1" as="geometry" />
        </mxCell>
        <mxCell id="mQaGHORo1Vh2YD8DS4Wc-74" style="edgeStyle=orthogonalEdgeStyle;rounded=0;orthogonalLoop=1;jettySize=auto;html=1;exitX=0.089;exitY=1.017;exitDx=0;exitDy=0;entryX=1;entryY=0.5;entryDx=0;entryDy=0;exitPerimeter=0;" parent="mQaGHORo1Vh2YD8DS4Wc-4" source="mQaGHORo1Vh2YD8DS4Wc-8" target="mQaGHORo1Vh2YD8DS4Wc-19" edge="1">
          <mxGeometry relative="1" as="geometry" />
        </mxCell>
        <mxCell id="mQaGHORo1Vh2YD8DS4Wc-87" style="edgeStyle=orthogonalEdgeStyle;rounded=0;orthogonalLoop=1;jettySize=auto;html=1;entryX=1;entryY=0.5;entryDx=0;entryDy=0;" parent="mQaGHORo1Vh2YD8DS4Wc-4" source="mQaGHORo1Vh2YD8DS4Wc-5" target="mQaGHORo1Vh2YD8DS4Wc-13" edge="1">
          <mxGeometry relative="1" as="geometry" />
        </mxCell>
        <mxCell id="mQaGHORo1Vh2YD8DS4Wc-5" value="Core Crew" style="swimlane;startSize=20;html=1;fillColor=#6d8764;fontColor=#ffffff;strokeColor=#3A5431;" parent="mQaGHORo1Vh2YD8DS4Wc-4" vertex="1">
          <mxGeometry x="295" y="20" width="200" height="200" as="geometry" />
        </mxCell>
        <mxCell id="mQaGHORo1Vh2YD8DS4Wc-6" value="Task Router" style="rounded=1;whiteSpace=wrap;html=1;" parent="mQaGHORo1Vh2YD8DS4Wc-5" vertex="1">
          <mxGeometry x="40" y="90" width="120" height="40" as="geometry" />
        </mxCell>
        <mxCell id="mQaGHORo1Vh2YD8DS4Wc-8" value="Executor Agent" style="rounded=1;whiteSpace=wrap;html=1;" parent="mQaGHORo1Vh2YD8DS4Wc-5" vertex="1">
          <mxGeometry x="40" y="140" width="120" height="40" as="geometry" />
        </mxCell>
        <mxCell id="mQaGHORo1Vh2YD8DS4Wc-7" value="Planner Agent" style="rounded=1;whiteSpace=wrap;html=1;" parent="mQaGHORo1Vh2YD8DS4Wc-5" vertex="1">
          <mxGeometry x="40" y="40" width="120" height="40" as="geometry" />
        </mxCell>
        <mxCell id="mQaGHORo1Vh2YD8DS4Wc-20" value="Response Validator" style="rounded=1;whiteSpace=wrap;html=1;fillColor=#d5e8d4;strokeColor=#82b366;" parent="mQaGHORo1Vh2YD8DS4Wc-4" vertex="1">
          <mxGeometry x="375" y="320" width="120" height="40" as="geometry" />
        </mxCell>
        <mxCell id="mQaGHORo1Vh2YD8DS4Wc-83" value="Crew Manager" style="ellipse;whiteSpace=wrap;html=1;aspect=fixed;fillColor=#a0522d;strokeColor=#6D1F00;fontStyle=1;fontColor=#ffffff;labelBackgroundColor=none;labelBorderColor=none;shadow=1;" parent="mQaGHORo1Vh2YD8DS4Wc-4" vertex="1">
          <mxGeometry x="395" y="210" width="80" height="80" as="geometry" />
        </mxCell>
        <mxCell id="mQaGHORo1Vh2YD8DS4Wc-85" style="edgeStyle=orthogonalEdgeStyle;rounded=0;orthogonalLoop=1;jettySize=auto;html=1;entryX=0.504;entryY=1.033;entryDx=0;entryDy=0;entryPerimeter=0;" parent="mQaGHORo1Vh2YD8DS4Wc-4" source="mQaGHORo1Vh2YD8DS4Wc-20" target="mQaGHORo1Vh2YD8DS4Wc-83" edge="1">
          <mxGeometry relative="1" as="geometry" />
        </mxCell>
        <mxCell id="mQaGHORo1Vh2YD8DS4Wc-12" value="Local Cache&#xa;(Default Fallback)" style="rounded=1;whiteSpace=wrap;html=1;fillColor=#b0e3e6;strokeColor=#0e8088;" parent="mQaGHORo1Vh2YD8DS4Wc-4" vertex="1">
          <mxGeometry x="580" y="170" width="120" height="40" as="geometry" />
        </mxCell>
        <mxCell id="Qp2QEkqSjkCgz9pn4vi4-7" style="edgeStyle=orthogonalEdgeStyle;rounded=0;orthogonalLoop=1;jettySize=auto;html=1;" edge="1" parent="mQaGHORo1Vh2YD8DS4Wc-4" source="Qp2QEkqSjkCgz9pn4vi4-5">
          <mxGeometry relative="1" as="geometry">
            <mxPoint x="500" y="80" as="targetPoint" />
          </mxGeometry>
        </mxCell>
        <mxCell id="Qp2QEkqSjkCgz9pn4vi4-5" value="API" style="shape=hexagon;perimeter=hexagonPerimeter2;whiteSpace=wrap;html=1;fixedSize=1;fillColor=#ffe6cc;strokeColor=#d79b00;fontStyle=1" vertex="1" parent="mQaGHORo1Vh2YD8DS4Wc-4">
          <mxGeometry x="580" y="40" width="120" height="80" as="geometry" />
        </mxCell>
        <mxCell id="mQaGHORo1Vh2YD8DS4Wc-21" value="External Tolling APIs" style="swimlane;startSize=20;html=1;fillColor=#d5e8d4;strokeColor=#82b366;" parent="1" vertex="1">
          <mxGeometry x="390" y="880" width="400" height="140" as="geometry" />
        </mxCell>
        <mxCell id="mQaGHORo1Vh2YD8DS4Wc-22" value="GSuite&lt;br&gt;Tool" style="rounded=1;whiteSpace=wrap;html=1;" parent="mQaGHORo1Vh2YD8DS4Wc-21" vertex="1">
          <mxGeometry x="10" y="60" width="120" height="60" as="geometry" />
        </mxCell>
        <mxCell id="mQaGHORo1Vh2YD8DS4Wc-23" value="Trading&lt;br&gt;Tool" style="rounded=1;whiteSpace=wrap;html=1;" parent="mQaGHORo1Vh2YD8DS4Wc-21" vertex="1">
          <mxGeometry x="140" y="60" width="120" height="60" as="geometry" />
        </mxCell>
        <mxCell id="mQaGHORo1Vh2YD8DS4Wc-75" style="edgeStyle=orthogonalEdgeStyle;rounded=0;orthogonalLoop=1;jettySize=auto;html=1;" parent="mQaGHORo1Vh2YD8DS4Wc-21" source="mQaGHORo1Vh2YD8DS4Wc-24" edge="1">
          <mxGeometry relative="1" as="geometry">
            <mxPoint x="480" y="-160" as="targetPoint" />
          </mxGeometry>
        </mxCell>
        <mxCell id="mQaGHORo1Vh2YD8DS4Wc-24" value="Finance&lt;br&gt;Tool" style="rounded=1;whiteSpace=wrap;html=1;" parent="mQaGHORo1Vh2YD8DS4Wc-21" vertex="1">
          <mxGeometry x="270" y="60" width="120" height="60" as="geometry" />
        </mxCell>
        <mxCell id="mQaGHORo1Vh2YD8DS4Wc-25" value="Persistence" style="swimlane;startSize=20;html=1;fillColor=#dae8fc;strokeColor=#6c8ebf;" parent="1" vertex="1">
          <mxGeometry x="950" y="880" width="250" height="140" as="geometry" />
        </mxCell>
        <mxCell id="mQaGHORo1Vh2YD8DS4Wc-26" value="ChromaDB" style="shape=cylinder3;whiteSpace=wrap;html=1;boundedLbl=1;backgroundOutline=1;size=15;" parent="mQaGHORo1Vh2YD8DS4Wc-25" vertex="1">
          <mxGeometry x="20" y="60" width="100" height="60" as="geometry" />
        </mxCell>
        <mxCell id="mQaGHORo1Vh2YD8DS4Wc-27" value="PostgreSQL" style="shape=cylinder3;whiteSpace=wrap;html=1;boundedLbl=1;backgroundOutline=1;size=15;" parent="mQaGHORo1Vh2YD8DS4Wc-25" vertex="1">
          <mxGeometry x="130" y="60" width="100" height="60" as="geometry" />
        </mxCell>
        <mxCell id="mQaGHORo1Vh2YD8DS4Wc-68" value="https://portkey.ai/docs/integrations/agents/crewai" style="text;html=1;align=center;verticalAlign=middle;whiteSpace=wrap;rounded=0;fillColor=#f5f5f5;fontColor=#333333;strokeColor=#666666;" parent="1" vertex="1">
          <mxGeometry x="635" y="270" width="380" height="30" as="geometry" />
        </mxCell>
        <mxCell id="mQaGHORo1Vh2YD8DS4Wc-77" style="edgeStyle=orthogonalEdgeStyle;rounded=0;orthogonalLoop=1;jettySize=auto;html=1;entryX=0.498;entryY=-0.031;entryDx=0;entryDy=0;entryPerimeter=0;exitX=0.494;exitY=1.058;exitDx=0;exitDy=0;exitPerimeter=0;" parent="1" source="mQaGHORo1Vh2YD8DS4Wc-19" target="mQaGHORo1Vh2YD8DS4Wc-21" edge="1">
          <mxGeometry relative="1" as="geometry" />
        </mxCell>
        <mxCell id="mQaGHORo1Vh2YD8DS4Wc-79" value="Tool Catalog" style="image;sketch=0;aspect=fixed;html=1;points=[];align=center;fontSize=14;image=img/lib/mscae/Azure_Repos.svg;fontStyle=1" parent="1" vertex="1">
          <mxGeometry x="290" y="670" width="45" height="50" as="geometry" />
        </mxCell>
        <mxCell id="Qp2QEkqSjkCgz9pn4vi4-2" style="edgeStyle=orthogonalEdgeStyle;rounded=0;orthogonalLoop=1;jettySize=auto;html=1;entryX=0.483;entryY=-0.02;entryDx=0;entryDy=0;entryPerimeter=0;" edge="1" parent="1" source="mQaGHORo1Vh2YD8DS4Wc-9" target="mQaGHORo1Vh2YD8DS4Wc-25">
          <mxGeometry relative="1" as="geometry" />
        </mxCell>
        <mxCell id="Qp2QEkqSjkCgz9pn4vi4-3" style="edgeStyle=orthogonalEdgeStyle;rounded=0;orthogonalLoop=1;jettySize=auto;html=1;entryX=0.5;entryY=1;entryDx=0;entryDy=0;" edge="1" parent="1" source="mQaGHORo1Vh2YD8DS4Wc-5" target="mQaGHORo1Vh2YD8DS4Wc-68">
          <mxGeometry relative="1" as="geometry" />
        </mxCell>
        <mxCell id="Qp2QEkqSjkCgz9pn4vi4-11" value="" style="edgeStyle=orthogonalEdgeStyle;rounded=0;orthogonalLoop=1;jettySize=auto;html=1;" edge="1" parent="1" source="Qp2QEkqSjkCgz9pn4vi4-8" target="Qp2QEkqSjkCgz9pn4vi4-9">
          <mxGeometry relative="1" as="geometry" />
        </mxCell>
        <mxCell id="Qp2QEkqSjkCgz9pn4vi4-8" value="User / Automation" style="sketch=0;outlineConnect=0;fontColor=#232F3E;gradientColor=none;fillColor=#232F3D;strokeColor=none;dashed=0;verticalLabelPosition=bottom;verticalAlign=top;align=center;html=1;fontSize=12;fontStyle=1;aspect=fixed;pointerEvents=1;shape=mxgraph.aws4.user;" vertex="1" parent="1">
          <mxGeometry x="1330" y="401" width="78" height="78" as="geometry" />
        </mxCell>
        <mxCell id="Qp2QEkqSjkCgz9pn4vi4-10" style="edgeStyle=orthogonalEdgeStyle;rounded=0;orthogonalLoop=1;jettySize=auto;html=1;entryX=1;entryY=0.5;entryDx=0;entryDy=0;" edge="1" parent="1" source="Qp2QEkqSjkCgz9pn4vi4-9" target="Qp2QEkqSjkCgz9pn4vi4-5">
          <mxGeometry relative="1" as="geometry" />
        </mxCell>
        <mxCell id="Qp2QEkqSjkCgz9pn4vi4-9" value="Front-door" style="rounded=0;whiteSpace=wrap;html=1;fillColor=#d5e8d4;strokeColor=#82b366;gradientColor=none;glass=0;strokeWidth=2;align=center;flipV=1;flipH=1;labelBackgroundColor=none;fontStyle=1" vertex="1" parent="1">
          <mxGeometry x="1241" y="345" width="49" height="190" as="geometry" />
        </mxCell>
        <mxCell id="Qp2QEkqSjkCgz9pn4vi4-15" value="" style="group;fontStyle=0" vertex="1" connectable="0" parent="1">
          <mxGeometry x="265.75" y="435" width="93.5" height="100" as="geometry" />
        </mxCell>
        <mxCell id="Qp2QEkqSjkCgz9pn4vi4-14" value="Configuration Files" style="image;aspect=fixed;html=1;points=[];align=center;fontSize=12;image=img/lib/azure2/general/Files.svg;fontStyle=1" vertex="1" parent="Qp2QEkqSjkCgz9pn4vi4-15">
          <mxGeometry x="29.5" y="30" width="64" height="70" as="geometry" />
        </mxCell>
        <mxCell id="Qp2QEkqSjkCgz9pn4vi4-13" value="" style="image;aspect=fixed;html=1;points=[];align=center;fontSize=12;image=img/lib/azure2/integration/App_Configuration.svg;" vertex="1" parent="Qp2QEkqSjkCgz9pn4vi4-15">
          <mxGeometry width="64" height="68" as="geometry" />
        </mxCell>
      </root>
    </mxGraphModel>
  </diagram>
</mxfile>
